<?xml version="1.0" ?>
<!-- Uploaded to: SVG Repo, www.svgrepo.com, Generator: SVG Repo Mixer Tools -->
<svg width="800px" height="800px" viewBox="0 0 64 64" xmlns="http://www.w3.org/2000/svg">
<defs>
<style>.cls-1{fill:#22b573;}.cls-1,.cls-4{stroke:#004924;}.cls-1,.cls-2,.cls-3,.cls-4{stroke-miterlimit:10;stroke-width:2px;}.cls-2{fill:#8c6239;}.cls-2,.cls-3{stroke:#42210b;}.cls-3{fill:#c69c6d;}.cls-4{fill:none;stroke-linecap:round;}.cls-5{fill:#33d186;}</style>
</defs>
<title/>
<g data-name="Layer 9" id="Layer_9">
<path class="cls-1" d="M28.13,7.63H43.87a0,0,0,0,1,0,0V34a7.67,7.67,0,0,1-7.67,7.67H35.8A7.67,7.67,0,0,1,28.13,34V7.63a0,0,0,0,1,0,0Z" transform="translate(72 49.25) rotate(-180)"/>
<path class="cls-1" d="M20.12,41.63H30.92L33.43,26c.64-4-2.75-7.7-7.67-7.7h-.47c-4.92,0-8.31,3.73-7.67,7.7Z"/>
<polygon class="cls-2" points="19.7 56.38 44.3 56.38 47.86 46.82 16.14 46.82 19.7 56.38"/>
<rect class="cls-3" height="5.38" rx="1.9" ry="1.9" transform="translate(64 88.38) rotate(-180)" width="38.25" x="12.88" y="41.5"/>
<line class="cls-4" x1="41.31" x2="45.44" y1="15.88" y2="12.13"/>
<line class="cls-4" x1="30.13" x2="25.62" y1="12.8" y2="8.7"/>
<line class="cls-4" x1="42.77" x2="46.13" y1="28.25" y2="25.67"/>
<line class="cls-4" x1="43.31" x2="47.44" y1="36.88" y2="33.13"/>
<line class="cls-4" x1="20.13" x2="16.43" y1="35.12" y2="32.76"/>
<circle class="cls-5" cx="40.25" cy="24.38" r="1.75"/>
<circle class="cls-5" cx="36.25" cy="19.38" r="1.75"/>
<circle class="cls-5" cx="37.25" cy="12.38" r="1.75"/>
<circle class="cls-5" cx="26.25" cy="37.38" r="1.75"/>
<circle class="cls-5" cx="37.25" cy="36.38" r="1.75"/>
<circle class="cls-5" cx="25.25" cy="24.38" r="1.75"/>
<circle class="cls-5" cx="23.25" cy="29.38" r="1.75"/>
<line class="cls-4" x1="20.63" x2="16.5" y1="23.6" y2="19.28"/>
<line class="cls-4" x1="31.54" x2="35.8" y1="29.5" y2="26.22"/>
<line class="cls-4" x1="30.54" x2="34.8" y1="37.5" y2="34.22"/>
</g>
</svg>